<svg xmlns="http://www.w3.org/2000/svg" width="620" height="620" viewBox="0 0 620 620" role="img" aria-label="Robô EnergyIA">
  <defs>
    <linearGradient id="g" x1="0" x2="1" y1="0" y2="1"><stop stop-color="#F57C00"/><stop offset="1" stop-color="#FFB347"/></linearGradient>
    <filter id="s" x="-20%" y="-20%" width="140%" height="140%"><feDropShadow dx="0" dy="24" stdDeviation="24" flood-color="#F57C00" flood-opacity=".22"/></filter>
  </defs>
  <rect width="620" height="620" fill="none"/>
  <circle cx="310" cy="318" r="232" fill="#FFF4EC"/>
  <g filter="url(#s)">
    <rect x="170" y="185" width="280" height="245" rx="44" fill="#fff" stroke="#1A1A1A" stroke-width="10"/>
    <rect x="205" y="235" width="210" height="100" rx="26" fill="#1A1A1A"/>
    <circle cx="265" cy="285" r="18" fill="#F57C00"/>
    <circle cx="355" cy="285" r="18" fill="#F57C00"/>
    <path d="M276 360c20 17 48 17 68 0" fill="none" stroke="#F57C00" stroke-width="12" stroke-linecap="round"/>
    <path d="M310 185v-58" stroke="#1A1A1A" stroke-width="10" stroke-linecap="round"/>
    <circle cx="310" cy="107" r="25" fill="url(#g)"/>
    <path d="M170 315h-44M494 315h-44" stroke="#1A1A1A" stroke-width="16" stroke-linecap="round"/>
    <path d="M230 430l-28 76M390 430l28 76" stroke="#1A1A1A" stroke-width="16" stroke-linecap="round"/>
  </g>
  <path d="M462 126 438 90l-24 36-36 24 36 24 24 36 24-36 36-24z" fill="#F57C00" opacity=".85"/>
  <path d="M132 158 116 134l-16 24-24 16 24 16 16 24 16-24 24-16z" fill="#1A1A1A" opacity=".16"/>
</svg>
